HIERARCHY
ROOT mixamorig:Hips
{
	OFFSET -0.000008 104.274872 1.554316
	CHANNELS 6 Xposition Yposition Zposition Xrotation Yrotation Zrotation
	JOINT mixamorig:Spine
	{
		OFFSET -0.000005 10.181595 0.131519
		CHANNELS 6 Xposition Yposition Zposition Xrotation Yrotation Zrotation
		JOINT mixamorig:Spine1
		{
			OFFSET -0.000000 9.893959 -1.470707
			CHANNELS 6 Xposition Yposition Zposition Xrotation Yrotation Zrotation
			JOINT mixamorig:Spine2
			{
				OFFSET -0.000000 9.220757 -1.370641
				CHANNELS 6 Xposition Yposition Zposition Xrotation Yrotation Zrotation
				JOINT mixamorig:Neck
				{
					OFFSET 0.000001 16.740417 -2.049036
					CHANNELS 6 Xposition Yposition Zposition Xrotation Yrotation Zrotation
					JOINT mixamorig:Head
					{
						OFFSET 0.000000 9.617874 1.685006
						CHANNELS 6 Xposition Yposition Zposition Xrotation Yrotation Zrotation
						JOINT mixamorig:HeadTop_End
						{
							OFFSET 0.000002 22.037354 7.501101
							CHANNELS 6 Xposition Yposition Zposition Xrotation Yrotation Zrotation
							End Site
							{
								OFFSET 0.000168 2310.654297 -282.823242
							}
						}
					}
				}
				JOINT mixamorig:RightShoulder
				{
					OFFSET -4.569970 11.014908 -2.160885
					CHANNELS 6 Xposition Yposition Zposition Xrotation Yrotation Zrotation
					JOINT mixamorig:RightArm
					{
						OFFSET -10.592851 -0.524811 -2.232101
						CHANNELS 6 Xposition Yposition Zposition Xrotation Yrotation Zrotation
						JOINT mixamorig:RightForeArm
						{
							OFFSET -27.841511 0.000031 -0.000004
							CHANNELS 6 Xposition Yposition Zposition Xrotation Yrotation Zrotation
							JOINT mixamorig:RightHand
							{
								OFFSET -28.328831 -0.000015 0.000015
								CHANNELS 6 Xposition Yposition Zposition Xrotation Yrotation Zrotation
								JOINT mixamorig:RightHandThumb1
								{
									OFFSET -2.464806 -1.573990 2.681852
									CHANNELS 6 Xposition Yposition Zposition Xrotation Yrotation Zrotation
									JOINT mixamorig:RightHandThumb2
									{
										OFFSET -3.215179 -1.872803 1.924282
										CHANNELS 6 Xposition Yposition Zposition Xrotation Yrotation Zrotation
										JOINT mixamorig:RightHandThumb3
										{
											OFFSET -2.654831 -1.527969 1.512609
											CHANNELS 6 Xposition Yposition Zposition Xrotation Yrotation Zrotation
											JOINT mixamorig:RightHandThumb4
											{
												OFFSET -2.018814 -1.152008 1.108052
												CHANNELS 6 Xposition Yposition Zposition Xrotation Yrotation Zrotation
												End Site
												{
													OFFSET -188.809540 -114.533607 132.431396
												}
											}
										}
									}
								}
								JOINT mixamorig:RightHandIndex1
								{
									OFFSET -9.108284 -0.517868 2.259835
									CHANNELS 6 Xposition Yposition Zposition Xrotation Yrotation Zrotation
									JOINT mixamorig:RightHandIndex2
									{
										OFFSET -3.699989 0.000000 0.001215
										CHANNELS 6 Xposition Yposition Zposition Xrotation Yrotation Zrotation
										JOINT mixamorig:RightHandIndex3
										{
											OFFSET -2.850006 0.000031 -0.000522
											CHANNELS 6 Xposition Yposition Zposition Xrotation Yrotation Zrotation
											JOINT mixamorig:RightHandIndex4
											{
												OFFSET -2.772186 -0.000015 -0.000020
												CHANNELS 6 Xposition Yposition Zposition Xrotation Yrotation Zrotation
												End Site
												{
													OFFSET -277.218445 0.000000 -0.050231
												}
											}
										}
									}
								}
								JOINT mixamorig:RightHandMiddle1
								{
									OFFSET -9.532516 -0.000031 -0.000023
									CHANNELS 6 Xposition Yposition Zposition Xrotation Yrotation Zrotation
									JOINT mixamorig:RightHandMiddle2
									{
										OFFSET -3.700005 -0.000015 0.003713
										CHANNELS 6 Xposition Yposition Zposition Xrotation Yrotation Zrotation
										JOINT mixamorig:RightHandMiddle3
										{
											OFFSET -2.949974 0.000015 -0.002054
											CHANNELS 6 Xposition Yposition Zposition Xrotation Yrotation Zrotation
											JOINT mixamorig:RightHandMiddle4
											{
												OFFSET -2.946640 0.000000 -0.000156
												CHANNELS 6 Xposition Yposition Zposition Xrotation Yrotation Zrotation
												End Site
												{
													OFFSET -294.664337 0.000000 -0.113670
												}
											}
										}
									}
								}
								JOINT mixamorig:RightHandRing1
								{
									OFFSET -9.103600 -0.043076 -1.865134
									CHANNELS 6 Xposition Yposition Zposition Xrotation Yrotation Zrotation
									JOINT mixamorig:RightHandRing2
									{
										OFFSET -3.379288 0.000000 -0.001055
										CHANNELS 6 Xposition Yposition Zposition Xrotation Yrotation Zrotation
										JOINT mixamorig:RightHandRing3
										{
											OFFSET -2.889687 -0.000015 0.000379
											CHANNELS 6 Xposition Yposition Zposition Xrotation Yrotation Zrotation
											JOINT mixamorig:RightHandRing4
											{
												OFFSET -2.638809 -0.000015 0.000941
												CHANNELS 6 Xposition Yposition Zposition Xrotation Yrotation Zrotation
												End Site
												{
													OFFSET -263.880371 0.000000 0.516020
												}
											}
										}
									}
								}
								JOINT mixamorig:RightHandPinky1
								{
									OFFSET -8.076683 -0.486710 -3.806280
									CHANNELS 6 Xposition Yposition Zposition Xrotation Yrotation Zrotation
									JOINT mixamorig:RightHandPinky2
									{
										OFFSET -3.600014 -0.000015 -0.003747
										CHANNELS 6 Xposition Yposition Zposition Xrotation Yrotation Zrotation
										JOINT mixamorig:RightHandPinky3
										{
											OFFSET -2.099983 0.000000 -0.005739
											CHANNELS 6 Xposition Yposition Zposition Xrotation Yrotation Zrotation
											JOINT mixamorig:RightHandPinky4
											{
												OFFSET -2.115768 -0.000031 -0.003680
												CHANNELS 6 Xposition Yposition Zposition Xrotation Yrotation Zrotation
												End Site
												{
													OFFSET -211.577087 0.000000 -0.350686
												}
											}
										}
									}
								}
							}
						}
					}
				}
				JOINT mixamorig:LeftShoulder
				{
					OFFSET 4.570447 11.014725 -2.160855
					CHANNELS 6 Xposition Yposition Zposition Xrotation Yrotation Zrotation
					JOINT mixamorig:LeftArm
					{
						OFFSET 10.592371 -0.524597 -2.232119
						CHANNELS 6 Xposition Yposition Zposition Xrotation Yrotation Zrotation
						JOINT mixamorig:LeftForeArm
						{
							OFFSET 27.841532 -0.000031 0.000026
							CHANNELS 6 Xposition Yposition Zposition Xrotation Yrotation Zrotation
							JOINT mixamorig:LeftHand
							{
								OFFSET 28.328846 -0.000061 0.000022
								CHANNELS 6 Xposition Yposition Zposition Xrotation Yrotation Zrotation
								JOINT mixamorig:LeftHandThumb1
								{
									OFFSET 2.466141 -1.576172 2.681732
									CHANNELS 6 Xposition Yposition Zposition Xrotation Yrotation Zrotation
									JOINT mixamorig:LeftHandThumb2
									{
										OFFSET 3.217812 -1.872070 1.916482
										CHANNELS 6 Xposition Yposition Zposition Xrotation Yrotation Zrotation
										JOINT mixamorig:LeftHandThumb3
										{
											OFFSET 2.656029 -1.528778 1.514513
											CHANNELS 6 Xposition Yposition Zposition Xrotation Yrotation Zrotation
											JOINT mixamorig:LeftHandThumb4
											{
												OFFSET 2.020889 -1.154053 1.115139
												CHANNELS 6 Xposition Yposition Zposition Xrotation Yrotation Zrotation
												End Site
												{
													OFFSET 190.885437 -115.081749 130.048782
												}
											}
										}
									}
								}
								JOINT mixamorig:LeftHandIndex1
								{
									OFFSET 9.109314 -0.518021 2.259871
									CHANNELS 6 Xposition Yposition Zposition Xrotation Yrotation Zrotation
									JOINT mixamorig:LeftHandIndex2
									{
										OFFSET 3.699989 0.000000 -0.000322
										CHANNELS 6 Xposition Yposition Zposition Xrotation Yrotation Zrotation
										JOINT mixamorig:LeftHandIndex3
										{
											OFFSET 2.850006 0.000000 0.000352
											CHANNELS 6 Xposition Yposition Zposition Xrotation Yrotation Zrotation
											JOINT mixamorig:LeftHandIndex4
											{
												OFFSET 2.774864 -0.000031 -0.000027
												CHANNELS 6 Xposition Yposition Zposition Xrotation Yrotation Zrotation
												End Site
												{
													OFFSET 277.486267 0.000000 -0.009857
												}
											}
										}
									}
								}
								JOINT mixamorig:LeftHandMiddle1
								{
									OFFSET 9.533394 0.000061 0.000044
									CHANNELS 6 Xposition Yposition Zposition Xrotation Yrotation Zrotation
									JOINT mixamorig:LeftHandMiddle2
									{
										OFFSET 3.699989 -0.000015 -0.000231
										CHANNELS 6 Xposition Yposition Zposition Xrotation Yrotation Zrotation
										JOINT mixamorig:LeftHandMiddle3
										{
											OFFSET 2.949997 -0.000015 -0.000059
											CHANNELS 6 Xposition Yposition Zposition Xrotation Yrotation Zrotation
											JOINT mixamorig:LeftHandMiddle4
											{
												OFFSET 2.952896 0.000031 0.000063
												CHANNELS 6 Xposition Yposition Zposition Xrotation Yrotation Zrotation
												End Site
												{
													OFFSET 295.289337 0.000000 0.022810
												}
											}
										}
									}
								}
								JOINT mixamorig:LeftHandRing1
								{
									OFFSET 9.104523 -0.042999 -1.865074
									CHANNELS 6 Xposition Yposition Zposition Xrotation Yrotation Zrotation
									JOINT mixamorig:LeftHandRing2
									{
										OFFSET 3.150009 -0.000031 0.000043
										CHANNELS 6 Xposition Yposition Zposition Xrotation Yrotation Zrotation
										JOINT mixamorig:LeftHandRing3
										{
											OFFSET 2.949982 -0.000015 0.000040
											CHANNELS 6 Xposition Yposition Zposition Xrotation Yrotation Zrotation
											JOINT mixamorig:LeftHandRing4
											{
												OFFSET 2.644348 0.000000 0.000057
												CHANNELS 6 Xposition Yposition Zposition Xrotation Yrotation Zrotation
												End Site
												{
													OFFSET 264.434631 0.000000 0.012105
												}
											}
										}
									}
								}
								JOINT mixamorig:LeftHandPinky1
								{
									OFFSET 8.077789 -0.486847 -3.806259
									CHANNELS 6 Xposition Yposition Zposition Xrotation Yrotation Zrotation
									JOINT mixamorig:LeftHandPinky2
									{
										OFFSET 3.599953 0.000031 0.014727
										CHANNELS 6 Xposition Yposition Zposition Xrotation Yrotation Zrotation
										JOINT mixamorig:LeftHandPinky3
										{
											OFFSET 2.100021 0.000015 0.007705
											CHANNELS 6 Xposition Yposition Zposition Xrotation Yrotation Zrotation
											JOINT mixamorig:LeftHandPinky4
											{
												OFFSET 2.125504 0.000031 0.007517
												CHANNELS 6 Xposition Yposition Zposition Xrotation Yrotation Zrotation
												End Site
												{
													OFFSET 212.550781 0.000000 0.625752
												}
											}
										}
									}
								}
							}
						}
					}
				}
			}
		}
	}
	JOINT mixamorig:RightUpLeg
	{
		OFFSET -8.207787 -6.751648 -1.599560
		CHANNELS 6 Xposition Yposition Zposition Xrotation Yrotation Zrotation
		JOINT mixamorig:RightLeg
		{
			OFFSET -0.000002 -44.370117 0.345942
			CHANNELS 6 Xposition Yposition Zposition Xrotation Yrotation Zrotation
			JOINT mixamorig:RightFoot
			{
				OFFSET 0.000003 -44.423679 -3.043532
				CHANNELS 6 Xposition Yposition Zposition Xrotation Yrotation Zrotation
				JOINT mixamorig:RightToeBase
				{
					OFFSET -0.000002 -8.728671 10.710558
					CHANNELS 6 Xposition Yposition Zposition Xrotation Yrotation Zrotation
					JOINT mixamorig:RightToe_End
					{
						OFFSET -0.000001 -0.000679 9.278119
						CHANNELS 6 Xposition Yposition Zposition Xrotation Yrotation Zrotation
						End Site
						{
							OFFSET 0.000000 -0.067690 927.812134
						}
					}
				}
			}
		}
	}
	JOINT mixamorig:LeftUpLeg
	{
		OFFSET 8.207793 -6.751686 -1.599556
		CHANNELS 6 Xposition Yposition Zposition Xrotation Yrotation Zrotation
		JOINT mixamorig:LeftLeg
		{
			OFFSET -0.000004 -44.370014 0.346954
			CHANNELS 6 Xposition Yposition Zposition Xrotation Yrotation Zrotation
			JOINT mixamorig:LeftFoot
			{
				OFFSET -0.000001 -44.423672 -3.044401
				CHANNELS 6 Xposition Yposition Zposition Xrotation Yrotation Zrotation
				JOINT mixamorig:LeftToeBase
				{
					OFFSET -0.000002 -8.728669 10.710558
					CHANNELS 6 Xposition Yposition Zposition Xrotation Yrotation Zrotation
					JOINT mixamorig:LeftToe_End
					{
						OFFSET -0.000003 -0.000679 9.278133
						CHANNELS 6 Xposition Yposition Zposition Xrotation Yrotation Zrotation
						End Site
						{
							OFFSET 0.000000 -0.068021 927.813477
						}
					}
				}
			}
		}
	}
}
MOTION
Frames: 3
Frame Time: 0.033333
0.000006 104.270477 1.554256 0.000010 0.000003 -0.000113 -0.000005 10.181587 0.131522 0.000001 -0.000003 0.000084 -0.000000 9.893967 -1.470711 0.000001 0.000000 -0.000000 -0.000000 9.220802 -1.370642 0.000000 -0.000000 -0.000000 0.000001 16.740433 -2.049030 0.000000 -0.000000 -0.000000 0.000000 9.617859 1.685014 0.000000 0.000000 0.000000 0.000002 22.037384 7.501101 0.000000 -0.000000 0.000000 -4.569968 11.014880 -2.160881 0.000008 0.000001 -0.000038 -10.592871 -0.524777 -2.231892 73.738811 33.471233 -25.416958 -27.841526 -0.000001 0.000544 -54.539778 107.026503 69.749783 -28.328819 0.000019 0.000027 -0.000321 -0.000043 0.000006 -2.464430 -1.573742 2.682321 -50.363940 -170.195924 -16.851253 -3.215284 -1.872571 1.924657 154.190947 31.035000 0.567831 -2.654947 -1.527910 1.513091 147.109065 26.631492 -39.913368 -2.018834 -1.151996 1.108061 -0.000004 -0.000001 0.000002 -9.108393 -0.517579 2.260075 90.048688 18.086378 -18.148991 -3.700067 0.000296 0.001449 86.454574 12.874542 -12.085431 -2.850071 0.000356 -0.000319 85.411919 9.963684 -9.198733 -2.772161 0.000003 -0.000018 -0.000001 -0.000001 -0.000001 -9.532576 0.000273 0.000208 86.865410 14.558333 -13.923622 -3.700044 0.000328 0.003916 85.009525 8.628039 -7.826529 -2.950057 0.000341 -0.001859 85.401059 10.100514 -9.317791 -2.946631 0.000004 -0.000156 0.000004 0.000000 -0.000000 -9.103692 -0.042760 -1.864882 88.248448 15.623648 -15.115998 -3.379300 0.000335 -0.000865 86.121118 5.684045 -5.327636 -2.889730 0.000355 0.000586 89.508311 4.309601 -4.316285 -2.638812 -0.000018 0.000942 0.000002 -0.000001 0.000001 -8.076731 -0.486382 -3.806020 90.203959 14.936597 -14.841253 -3.600022 0.000306 -0.003513 92.407146 5.141700 -5.008412 -2.099993 0.000329 -0.005502 93.187283 3.985375 -3.986954 -2.115776 -0.000044 -0.003680 -0.000006 0.000005 -0.000000 4.570446 11.014691 -2.160851 -0.000018 0.000010 -0.000021 10.592417 -0.524467 -2.232371 74.470843 -18.222419 13.898817 27.841827 0.000081 -0.000192 104.980274 -71.487690 86.313538 28.328831 -0.000028 0.000021 0.000022 -0.000089 0.000000 2.465894 -1.576069 2.681888 -52.218326 173.136088 23.833525 3.217842 -1.871788 1.916369 153.277409 -28.861091 13.003049 2.656096 -1.528608 1.514439 138.297151 -28.403948 41.114293 2.020899 -1.154070 1.115141 -0.000004 0.000005 0.000002 9.109380 -0.517848 2.259723 85.518961 -14.514342 13.420460 3.700049 0.000151 -0.000473 81.760950 -15.840870 13.749400 2.850063 0.000177 0.000224 82.446851 -13.747252 12.056988 2.774900 -0.000032 -0.000026 0.000002 0.000000 0.000001 9.533453 0.000229 -0.000101 86.246793 -12.892803 12.072965 3.700067 0.000177 -0.000370 87.624019 -14.402364 13.820305 2.950062 0.000155 -0.000193 87.967345 -18.880788 18.236848 2.952861 -0.000013 0.000058 0.000001 -0.000000 -0.000001 9.104586 -0.042838 -1.865238 85.748462 -13.343902 12.398218 3.150056 0.000193 -0.000088 92.191721 -13.075205 13.582419 2.950033 0.000176 -0.000053 95.529102 -14.969142 16.470264 2.644310 0.000029 0.000051 0.000000 0.000000 0.000000 8.077850 -0.486730 -3.806403 76.072379 -15.833099 12.878449 3.599998 0.000189 0.014580 78.614453 -11.817166 10.098640 2.100027 0.000194 0.007541 83.049670 -11.554607 10.664859 2.125504 -0.000014 0.007515 0.000001 0.000004 -0.000000 -8.207786 -6.751667 -1.599560 -0.077001 -0.000003 0.000080 -0.000002 -44.370110 0.345938 0.153719 -0.000000 -0.000000 0.000000 -44.423679 -3.043532 -0.076700 0.000000 -0.000002 -0.000006 -8.728667 10.710559 -0.000009 -0.000000 -0.000000 -0.000001 -0.000679 9.278123 0.000000 -0.000000 -0.000000 8.207792 -6.751710 -1.599556 -0.074518 -0.000003 0.000081 -0.000002 -44.370014 0.346960 0.148822 0.000002 0.000000 -0.000001 -44.423664 -3.044403 -0.074314 0.000000 -0.000002 -0.000004 -8.728671 10.710558 0.000007 -0.000000 -0.000000 0.000000 -0.000680 9.278137 -0.000000 0.000000 -0.000001 
0.000006 104.270477 1.554256 0.000010 0.000003 -0.000113 -0.000005 10.181587 0.131522 0.000001 -0.000003 0.000084 -0.000000 9.893967 -1.470711 0.000001 0.000000 -0.000000 -0.000000 9.220802 -1.370642 0.000000 -0.000000 -0.000000 0.000001 16.740433 -2.049030 0.000000 -0.000000 -0.000000 0.000000 9.617859 1.685014 0.000000 0.000000 0.000000 0.000002 22.037384 7.501101 0.000000 -0.000000 0.000000 -4.569968 11.014880 -2.160881 0.000008 0.000001 -0.000038 -10.592869 -0.524786 -2.231882 74.505029 34.789664 -26.801456 -27.841528 0.000015 0.000543 -51.523542 105.491158 64.793811 -28.328810 0.000034 0.000027 -0.000319 -0.000044 0.000006 -2.464451 -1.573717 2.682310 -51.995252 -170.243216 -21.743176 -3.215269 -1.872562 1.924654 150.846668 32.467123 13.721812 -2.654949 -1.527895 1.513082 146.076614 27.269363 -35.274754 -2.018838 -1.152000 1.108046 -0.000001 -0.000002 0.000000 -9.108409 -0.517553 2.260056 87.193874 17.881510 -17.084591 -3.700062 0.000319 0.001472 86.541263 14.046013 -13.207833 -2.850072 0.000354 -0.000316 85.938861 11.225680 -10.460482 -2.772165 -0.000016 -0.000018 -0.000005 -0.000001 0.000001 -9.532583 0.000284 0.000184 81.830010 14.025597 -12.292471 -3.700055 0.000334 0.003918 85.619351 8.772768 -8.044320 -2.950044 0.000333 -0.001848 88.315248 10.336447 -10.031647 -2.946612 0.000004 -0.000154 -0.000004 0.000000 0.000001 -9.103701 -0.042746 -1.864914 85.038423 15.779441 -14.442881 -3.379312 0.000319 -0.000865 84.894914 4.470454 -4.104014 -2.889738 0.000366 0.000596 90.718730 3.286874 -3.372055 -2.638804 -0.000019 0.000941 0.000003 0.000001 0.000001 -8.076756 -0.486368 -3.806027 86.083982 15.403598 -14.257476 -3.600023 0.000302 -0.003531 88.556995 3.009468 -2.614415 -2.099992 0.000339 -0.005520 89.404226 1.118278 -0.904251 -2.115772 -0.000043 -0.003679 0.000002 -0.000002 -0.000005 4.570446 11.014691 -2.160851 -0.000018 0.000010 -0.000021 10.592417 -0.524465 -2.232363 74.414262 -18.729547 14.274001 27.841827 0.000071 -0.000191 106.575369 -72.649314 89.189573 28.328840 -0.000014 0.000025 0.000019 -0.000088 -0.000000 2.466012 -1.576161 2.681912 -39.210012 162.244259 -11.008286 3.217810 -1.871764 1.916371 158.029322 -29.288684 10.702993 2.656084 -1.528638 1.514451 137.693185 -28.367003 48.970943 2.020876 -1.154068 1.115156 0.000005 0.000005 0.000002 9.109376 -0.517849 2.259751 87.208340 -16.907995 16.102519 3.700043 0.000149 -0.000473 83.218526 -12.103856 10.773159 2.850049 0.000209 0.000210 83.936038 -9.729337 8.753390 2.774886 -0.000032 -0.000028 -0.000004 -0.000003 0.000001 9.533458 0.000207 -0.000075 87.971634 -16.213496 15.647979 3.700055 0.000179 -0.000382 88.782398 -11.932054 11.680279 2.950064 0.000171 -0.000210 90.087921 -13.181702 13.204731 2.952865 -0.000014 0.000062 0.000007 -0.000000 0.000000 9.104593 -0.042843 -1.865226 87.698625 -16.345729 15.712099 3.150042 0.000220 -0.000093 93.229815 -11.439411 12.100261 2.950030 0.000177 -0.000079 94.681469 -11.429535 12.398354 2.644310 0.000046 0.000059 -0.000001 0.000000 0.000000 8.077845 -0.486715 -3.806406 78.898199 -17.972116 15.321887 3.599988 0.000168 0.014562 79.485903 -14.401210 12.425274 2.100047 0.000185 0.007547 80.305874 -11.471066 10.092976 2.125510 0.000001 0.007516 0.000000 -0.000000 0.000000 -8.207786 -6.751667 -1.599560 -0.077001 -0.000003 0.000080 -0.000002 -44.370110 0.345938 0.153719 -0.000000 -0.000000 0.000000 -44.423679 -3.043532 -0.076700 0.000000 -0.000002 -0.000006 -8.728667 10.710559 -0.000009 -0.000000 -0.000000 -0.000001 -0.000679 9.278123 0.000000 -0.000000 -0.000000 8.207792 -6.751710 -1.599556 -0.074518 -0.000003 0.000081 -0.000002 -44.370014 0.346960 0.148822 0.000002 0.000000 -0.000001 -44.423664 -3.044403 -0.074314 0.000000 -0.000002 -0.000004 -8.728671 10.710558 0.000007 -0.000000 -0.000000 0.000000 -0.000680 9.278137 -0.000000 0.000000 -0.000001 
0.000006 104.270477 1.554256 0.000010 0.000003 -0.000113 -0.000005 10.181587 0.131522 0.000001 -0.000003 0.000084 -0.000000 9.893967 -1.470711 0.000001 0.000000 -0.000000 -0.000000 9.220802 -1.370642 0.000000 -0.000000 -0.000000 0.000001 16.740433 -2.049030 0.000000 -0.000000 -0.000000 0.000000 9.617859 1.685014 0.000000 0.000000 0.000000 0.000002 22.037384 7.501101 0.000000 -0.000000 0.000000 -4.569968 11.014880 -2.160881 0.000008 0.000001 -0.000038 -10.592856 -0.524805 -2.231832 74.629331 42.658182 -33.147659 -27.841526 0.000014 0.000535 -50.604803 103.158396 61.591183 -28.328823 0.000004 0.000027 -0.000323 -0.000044 0.000007 -2.464426 -1.573743 2.682311 -51.075755 -168.288812 -18.740031 -3.215264 -1.872565 1.924639 150.913002 32.446728 13.475126 -2.654944 -1.527870 1.513070 145.987452 27.232038 -35.895250 -2.018830 -1.152013 1.108064 -0.000002 -0.000005 0.000000 -9.108371 -0.517570 2.260056 86.568973 17.845623 -16.867781 -3.700068 0.000306 0.001463 85.876529 13.992716 -13.006801 -2.850101 0.000358 -0.000313 84.754069 11.135624 -10.164553 -2.772172 -0.000016 -0.000020 0.000004 -0.000001 0.000000 -9.532581 0.000269 0.000180 82.065515 14.120498 -12.426236 -3.700052 0.000317 0.003923 85.342012 8.612639 -7.857911 -2.950036 0.000335 -0.001843 87.675109 10.323069 -9.907829 -2.946620 0.000006 -0.000152 -0.000002 -0.000001 -0.000002 -9.103687 -0.042755 -1.864901 85.016095 16.085929 -14.718959 -3.379304 0.000321 -0.000868 84.391290 4.343241 -3.952584 -2.889724 0.000366 0.000586 90.194205 3.336368 -3.391031 -2.638806 -0.000015 0.000939 0.000002 0.000000 0.000002 -8.076733 -0.486379 -3.806047 86.877745 15.937143 -14.960151 -3.599997 0.000294 -0.003533 88.835585 3.332288 -2.941867 -2.099986 0.000339 -0.005509 89.986014 1.418283 -1.212391 -2.115776 -0.000057 -0.003678 0.000006 -0.000003 -0.000003 4.570446 11.014691 -2.160851 -0.000018 0.000010 -0.000021 10.592443 -0.524462 -2.232386 74.494346 -27.030007 20.713380 27.841822 0.000031 -0.000179 108.290040 -74.987452 93.419612 28.328821 -0.000029 0.000021 0.000023 -0.000088 -0.000002 2.466006 -1.576167 2.681922 -34.753679 160.531794 -20.586293 3.217824 -1.871794 1.916390 159.353641 -27.702141 18.622434 2.656118 -1.528670 1.514463 138.521277 -28.093972 50.008401 2.020899 -1.154065 1.115144 0.000002 0.000006 0.000002 9.109381 -0.517861 2.259753 86.857480 -17.774471 16.827421 3.700048 0.000161 -0.000472 83.571292 -11.992979 10.740409 2.850049 0.000209 0.000215 84.312962 -9.679234 8.765827 2.774879 -0.000033 -0.000028 -0.000001 -0.000002 0.000000 9.533460 0.000227 -0.000085 88.113573 -17.822212 17.244978 3.700048 0.000206 -0.000386 89.118922 -11.658160 11.478827 2.950062 0.000189 -0.000212 90.160437 -12.796289 12.834824 2.952868 -0.000030 0.000064 0.000004 0.000000 -0.000001 9.104589 -0.042847 -1.865209 87.706145 -17.872797 17.183789 3.150042 0.000212 -0.000087 93.668504 -12.098367 12.894306 2.950012 0.000185 -0.000086 94.829056 -11.599125 12.614385 2.644331 0.000031 0.000056 0.000001 -0.000001 0.000001 8.077840 -0.486728 -3.806380 78.589325 -19.694468 16.669261 3.600007 0.000180 0.014565 79.536904 -16.269475 14.008570 2.100025 0.000182 0.007541 80.706471 -12.843740 11.341001 2.125503 -0.000015 0.007515 0.000001 -0.000002 0.000000 -8.207786 -6.751667 -1.599560 -0.077001 -0.000003 0.000080 -0.000002 -44.370110 0.345938 0.153719 -0.000000 -0.000000 0.000000 -44.423679 -3.043532 -0.076700 0.000000 -0.000002 -0.000006 -8.728667 10.710559 -0.000009 -0.000000 -0.000000 -0.000001 -0.000679 9.278123 0.000000 -0.000000 -0.000000 8.207792 -6.751710 -1.599556 -0.074518 -0.000003 0.000081 -0.000002 -44.370014 0.346960 0.148822 0.000002 0.000000 -0.000001 -44.423664 -3.044403 -0.074314 0.000000 -0.000002 -0.000004 -8.728671 10.710558 0.000007 -0.000000 -0.000000 0.000000 -0.000680 9.278137 -0.000000 0.000000 -0.000001 
